<?xml version="1.0" standalone="no"?>
<!DOCTYPE svg PUBLIC "-//W3C//DTD SVG 20010904//EN"
 "http://www.w3.org/TR/2001/REC-SVG-20010904/DTD/svg10.dtd">
<svg version="1.0" xmlns="http://www.w3.org/2000/svg"
 width="222.000000pt" height="222.000000pt" viewBox="0 0 222.000000 222.000000"
 preserveAspectRatio="xMidYMid meet">
<metadata>
Created by potrace 1.11, written by Peter Selinger 2001-2013
</metadata>
<g transform="translate(0.000000,222.000000) scale(0.100000,-0.100000)"
fill="#000000" stroke="none">
<path d="M1021 2061 c-1 -9 -11 -12 -35 -9 -19 2 -32 0 -29 -4 2 -5 -7 -7 -21
-4 -13 2 -26 1 -28 -4 -2 -5 -18 -12 -36 -15 -25 -4 -32 -2 -27 7 4 7 0 5 -9
-6 -9 -11 -29 -19 -51 -20 -24 -1 -42 -8 -51 -21 -13 -17 -17 -18 -37 -6 -19
13 -21 12 -9 -1 15 -18 -2 -37 -30 -33 -10 2 -16 0 -15 -3 1 -4 -1 -7 -4 -7
-4 0 -16 -8 -26 -18 -11 -9 -23 -14 -28 -10 -4 5 -5 -1 -1 -11 6 -17 5 -17
-11 -5 -11 9 -14 10 -9 2 4 -8 1 -13 -9 -13 -10 0 -13 -5 -9 -12 5 -8 2 -9
-11 -4 -15 5 -16 4 -5 -9 11 -13 10 -14 -6 -9 -10 4 -16 3 -12 -1 10 -11 -29
-38 -42 -30 -5 3 -7 0 -5 -7 3 -8 -8 -24 -25 -37 -21 -15 -29 -28 -26 -38 6
-14 4 -14 -11 -2 -11 9 -14 9 -9 2 7 -13 -9 -53 -28 -65 -17 -12 -28 -9 -20 4
5 7 3 8 -6 3 -11 -7 -11 -10 2 -19 14 -9 14 -11 -1 -25 -12 -11 -12 -13 -1 -6
13 8 13 8 3 -6 -7 -9 -10 -19 -6 -23 4 -4 0 -4 -9 -1 -9 4 -19 1 -24 -6 -4 -8
-3 -10 4 -5 19 11 14 -5 -5 -21 -10 -8 -12 -12 -5 -8 7 4 12 0 12 -10 0 -10
-5 -14 -12 -9 -10 5 -10 4 -1 -6 17 -18 -3 -54 -25 -46 -13 5 -13 3 2 -9 10
-8 23 -12 27 -9 16 9 10 -3 -8 -17 -15 -12 -16 -12 -8 1 4 8 4 12 0 7 -14 -12
-14 -48 -1 -37 8 6 11 1 10 -18 -1 -15 -3 -33 -3 -40 -1 -8 -6 -10 -13 -6 -9
5 -9 2 1 -9 15 -19 26 -23 15 -5 -5 7 -3 8 5 3 9 -5 7 -13 -10 -31 -12 -13
-17 -24 -11 -24 7 0 12 5 12 10 0 6 5 10 12 10 6 0 8 -3 5 -6 -3 -4 -2 -15 4
-25 7 -13 6 -26 -2 -40 -12 -24 3 -50 16 -28 5 8 4 10 -3 5 -7 -4 -12 -2 -12
4 0 28 24 1 24 -28 1 -19 9 -38 21 -47 11 -9 14 -13 7 -10 -10 5 -13 2 -10
-11 2 -11 9 -18 16 -17 13 3 4 -28 -11 -38 -5 -3 -1 -9 8 -12 9 -4 13 -3 10 3
-3 6 -1 10 5 10 7 0 9 -8 4 -22 -6 -21 -5 -22 12 -8 15 11 16 11 7 0 -19 -21
-16 -40 5 -34 16 5 16 5 0 -6 -10 -6 -18 -16 -18 -22 0 -9 3 -9 12 0 26 26 31
9 13 -43 l-8 -20 16 20 c16 20 16 20 10 -3 -3 -13 -2 -22 3 -20 5 2 21 -7 34
-20 17 -16 19 -21 7 -17 -13 6 -16 3 -11 -9 3 -9 11 -13 17 -9 5 3 8 2 5 -3
-8 -13 10 -56 21 -49 5 3 13 0 17 -6 4 -8 3 -9 -4 -5 -7 4 -12 1 -12 -8 0 -10
-6 -13 -17 -10 -14 5 -15 4 -4 -4 8 -6 20 -8 28 -5 19 7 16 -7 -4 -24 -10 -8
-13 -12 -7 -9 7 3 17 -1 24 -9 12 -14 7 -19 -13 -16 -5 1 -5 -3 -2 -9 4 -6 10
-9 13 -6 3 4 15 -3 27 -14 17 -16 22 -17 22 -6 0 8 -5 12 -10 9 -6 -4 -7 -1
-2 7 6 9 4 11 -5 5 -9 -6 -11 -4 -5 5 5 9 4 11 -3 6 -7 -4 -12 -5 -12 -2 0 3
10 10 21 17 15 8 19 8 15 0 -4 -6 -4 -17 1 -23 4 -7 8 -17 8 -23 0 -5 8 -9 18
-9 24 2 21 -12 -3 -19 -11 -3 -18 -1 -15 3 3 4 -4 6 -15 3 -26 -7 -20 -13 16
-16 15 -1 29 -9 31 -17 4 -13 3 -13 -6 0 -7 9 -11 10 -11 3 0 -18 19 -26 35
-13 10 8 13 8 11 -2 -1 -7 -5 -18 -9 -25 -4 -6 -3 -14 3 -18 6 -4 8 -10 5 -15
-7 -11 22 -40 38 -39 8 0 8 2 -1 6 -6 2 -9 10 -6 15 4 6 2 8 -4 4 -6 -3 -13
-2 -17 4 -3 5 1 10 9 10 17 0 35 -29 29 -47 -2 -6 1 -14 6 -18 8 -4 8 -12 1
-25 -8 -15 -6 -21 11 -30 33 -18 59 -20 59 -5 0 8 5 17 12 21 8 5 9 2 5 -9 -3
-10 -4 -24 -1 -32 5 -13 9 -13 22 -3 13 11 14 11 7 -1 -4 -8 -9 -28 -11 -45
-1 -23 0 -26 8 -13 5 9 14 17 21 17 8 0 8 -3 2 -8 -12 -8 -13 -22 -2 -39 5 -7
5 -19 2 -25 -4 -7 2 -2 13 11 14 18 21 21 27 11 5 -9 4 -11 -3 -6 -7 4 -12 2
-12 -3 0 -18 28 -12 34 7 4 14 5 13 4 -3 -1 -11 5 -33 12 -50 7 -16 13 -33 12
-37 -1 -5 2 -8 8 -8 13 0 13 13 0 26 -8 8 -6 15 5 24 14 11 16 11 13 -1 -2 -8
2 -13 8 -12 6 1 11 -4 11 -12 0 -8 -4 -12 -9 -9 -4 3 -8 0 -8 -5 0 -6 5 -11
11 -11 5 0 7 -5 3 -12 -4 -7 -3 -8 4 -4 7 4 18 4 25 -1 6 -4 19 -8 26 -8 8 0
24 -17 35 -37 10 -21 23 -35 28 -32 4 3 8 -1 8 -8 0 -9 3 -9 10 2 5 8 10 11
10 6 0 -5 7 -2 16 5 15 12 16 11 10 -11 -7 -24 -6 -24 6 -4 8 13 22 20 37 19
22 -2 23 -1 6 12 -22 15 -35 17 -35 4 0 -6 -9 -8 -20 -6 -13 3 -18 0 -14 -7 4
-7 2 -8 -5 -4 -6 4 -9 12 -6 17 4 5 2 9 -4 9 -5 0 -11 -6 -14 -12 -4 -11 -7
-11 -18 0 -11 10 -10 12 6 13 11 1 34 3 50 4 17 1 39 5 50 9 12 5 15 4 8 -1
-8 -6 -4 -12 13 -20 22 -10 24 -10 14 3 -7 8 -9 14 -5 14 4 0 2 7 -5 15 -10
12 -8 14 8 10 23 -4 86 38 74 49 -4 4 -2 7 3 6 21 -5 29 1 16 9 -10 6 -2 8 22
6 33 -3 51 6 52 28 0 4 5 6 10 5 6 -2 9 -7 7 -11 -1 -5 2 -6 8 -2 6 3 8 10 5
15 -3 4 2 11 10 14 8 3 14 11 13 18 -2 7 3 12 11 13 18 0 26 21 12 30 -6 3
-17 3 -23 -2 -7 -4 -21 -9 -30 -10 -17 -3 -17 -2 0 15 9 10 18 14 20 10 2 -4
12 -3 23 2 14 8 19 7 19 -2 1 -7 6 -3 13 10 7 12 17 19 22 15 4 -5 5 -2 0 6
-6 11 -4 13 11 7 16 -6 17 -5 6 6 -11 11 -16 9 -30 -7 -19 -22 -52 -32 -52
-15 0 6 5 8 10 5 6 -3 10 -1 10 6 0 7 3 9 7 6 10 -10 32 13 27 28 -3 7 -1 16
5 20 7 4 8 -1 4 -12 -6 -16 -5 -17 12 -3 10 8 16 10 12 3 -4 -6 -2 -15 4 -19
8 -4 9 -3 5 4 -4 7 -1 12 6 12 7 0 2 9 -11 19 -13 10 -21 24 -18 32 4 10 6 9
6 -3 1 -25 21 -23 21 2 0 11 5 20 11 20 5 0 7 5 3 12 -5 7 -3 8 6 3 10 -6 12
-4 7 9 -4 11 -3 15 4 11 6 -4 8 -13 6 -19 -3 -7 1 -13 8 -13 8 0 11 7 7 16 -5
14 -3 14 10 3 14 -11 16 -11 14 2 -1 9 -5 18 -8 22 -8 8 2 34 13 34 4 0 6 -7
3 -15 -4 -8 -1 -15 6 -15 6 0 8 5 4 12 -5 8 -2 9 11 4 13 -5 10 1 -8 18 -15
14 -27 29 -27 33 0 4 7 -1 15 -11 13 -17 15 -17 15 -3 0 18 29 37 48 30 6 -3
12 -1 12 5 0 15 -13 22 -24 13 -18 -14 -48 -22 -41 -11 3 6 13 10 21 10 8 0
13 3 13 8 -3 18 2 22 21 12 16 -9 19 -8 13 6 -5 13 -3 15 7 9 8 -5 11 -4 7 2
-4 6 -1 16 7 22 11 9 15 9 18 -1 3 -8 7 -6 11 6 4 10 3 15 -3 11 -18 -11 -4
35 16 51 18 15 18 15 -3 5 -16 -8 -22 -7 -26 4 -4 9 -1 12 8 9 7 -3 18 4 24
15 6 11 17 18 25 15 8 -3 17 -1 21 5 4 7 0 8 -11 4 -11 -4 -15 -3 -10 5 3 6 1
14 -5 18 -7 4 -9 3 -6 -3 6 -9 -26 -43 -41 -43 -4 1 4 10 17 20 13 11 19 20
15 20 -5 0 0 7 11 16 17 13 18 16 5 25 -13 9 -13 10 0 6 8 -2 15 -11 15 -20 0
-8 3 -19 7 -22 8 -8 3 31 -7 60 -6 19 -6 19 5 2 11 -18 13 -18 32 2 10 12 24
18 30 15 7 -4 8 -2 4 4 -5 9 -13 9 -28 1 -15 -8 -23 -8 -32 1 -8 9 -7 11 4 8
8 -2 16 4 16 12 1 8 2 21 3 28 0 7 5 11 9 8 4 -2 19 12 32 31 17 24 21 38 13
40 -7 3 -9 11 -6 20 5 12 3 14 -7 8 -8 -5 -11 -4 -6 3 4 6 14 8 23 5 12 -5 14
-3 8 8 -14 22 -13 48 2 42 11 -4 11 -8 1 -22 -12 -14 -11 -15 5 -2 12 9 14 17
7 26 -5 6 -7 15 -3 18 3 4 1 7 -5 7 -7 0 -2 10 9 21 17 17 19 23 8 30 -12 7
-12 9 0 9 9 0 10 4 3 13 -7 8 -6 16 4 24 11 11 12 8 9 -17 -2 -17 1 -30 6 -30
6 0 8 18 5 40 -3 24 -1 38 4 35 6 -3 7 1 4 9 -3 9 -11 13 -17 9 -6 -3 -7 -1
-3 5 13 22 15 52 3 52 -7 0 -4 5 6 11 9 5 17 15 17 20 0 6 -4 7 -10 4 -5 -3
-7 0 -4 9 3 8 2 21 -2 28 -12 18 -14 39 -4 33 4 -3 10 2 14 10 3 8 2 14 -2 14
-27 -4 -35 2 -17 15 18 13 17 14 -8 31 -15 9 -25 21 -22 25 3 5 1 11 -4 15 -6
3 -7 13 -4 22 4 11 3 14 -5 9 -8 -5 -10 -2 -6 8 4 11 0 16 -11 16 -9 0 -13 5
-10 10 3 6 1 10 -4 10 -6 0 -11 5 -11 11 0 5 6 7 13 3 8 -5 8 -2 -2 9 -7 9
-19 17 -25 17 -6 0 -4 -5 4 -11 13 -9 13 -10 0 -6 -9 2 -15 14 -14 31 1 14 -1
24 -4 21 -3 -2 -12 1 -21 7 -10 8 -8 3 4 -12 l20 -25 -27 24 c-23 20 -26 27
-15 39 10 13 9 15 -6 9 -21 -8 -71 25 -59 38 4 5 -2 5 -12 1 -16 -5 -17 -4 -6
9 10 12 10 15 -4 15 -11 0 -14 4 -10 13 5 7 0 6 -11 -3 -15 -12 -17 -12 -10
-1 6 11 4 13 -10 7 -15 -5 -16 -4 -5 9 11 13 10 14 -4 9 -9 -3 -16 -1 -16 5 0
6 -6 8 -13 5 -8 -3 -28 8 -45 24 -23 22 -34 26 -43 18 -9 -8 -10 -8 -5 2 4 7
1 12 -8 12 -9 0 -16 5 -16 10 0 6 -7 10 -16 10 -9 0 -12 5 -8 13 5 9 4 9 -6 0
-11 -10 -16 -9 -27 5 -8 9 -12 11 -8 5 4 -9 1 -11 -9 -7 -9 3 -16 11 -16 18 0
6 -5 4 -10 -4 -9 -13 -10 -13 -10 1 0 12 -8 14 -30 11 -16 -2 -30 0 -30 6 0
15 -28 23 -36 10 -5 -7 -2 -8 6 -3 9 6 11 4 6 -4 -6 -9 -13 -8 -27 5 -15 13
-19 14 -20 3 0 -8 -4 -6 -9 6 -5 11 -9 14 -9 8 -1 -7 -8 -13 -17 -13 -9 0 -12
5 -8 13 5 7 0 6 -11 -3 -21 -17 -24 -17 -36 2 -6 8 -12 9 -16 3 -9 -11 -48
-13 -59 -2 -10 10 -26 9 -20 -1 3 -5 -1 -9 -9 -9 -8 0 -11 5 -8 11 4 6 0 5 -9
-2 -13 -10 -17 -10 -21 0 -4 10 -6 10 -6 -1z m-256 -71 c-3 -5 -11 -10 -16
-10 -6 0 -7 5 -4 10 3 6 11 10 16 10 6 0 7 -4 4 -10z m-315 -224 c0 -2 -8 -10
-17 -17 -16 -13 -17 -12 -4 4 13 16 21 21 21 13z m1420 -705 c-14 -27 -27 -34
-36 -20 -5 8 -3 9 5 5 8 -5 14 0 18 13 3 12 9 21 15 21 5 0 4 -9 -2 -19z
m-145 -292 c-5 -24 -33 -59 -47 -59 -5 0 -8 6 -5 13 2 6 9 12 16 12 16 0 30
25 24 42 -3 7 0 13 5 13 6 0 9 -10 7 -21z m-1178 -19 c-1 -11 -5 -20 -9 -20
-10 0 -10 4 -2 24 8 22 13 20 11 -4z m1039 -156 c-4 -9 -1 -23 5 -30 10 -12 9
-13 -5 -8 -9 3 -16 10 -16 14 0 13 12 40 17 40 3 0 2 -7 -1 -16z m-921 -32
c-3 -3 -11 0 -18 7 -9 10 -8 11 6 5 10 -3 15 -9 12 -12z m66 -71 c-10 -6 -10
-10 -2 -16 9 -5 9 -11 -1 -23 -11 -13 -10 -14 9 -4 17 10 21 9 19 -3 -2 -16
-10 -18 -38 -9 -14 4 -16 10 -8 23 5 11 6 21 0 27 -6 6 -1 10 12 11 16 2 19 0
9 -6z m739 -51 c0 -5 -5 -10 -11 -10 -5 0 -7 5 -4 10 3 6 8 10 11 10 2 0 4 -4
4 -10z m-613 -104 c-7 -13 -15 -22 -20 -19 -5 3 -1 14 9 24 22 25 24 24 11 -5z
m593 12 c0 -6 -3 -8 -7 -5 -9 9 -34 -13 -27 -24 5 -9 -9 -13 -33 -10 -7 1 -14
-3 -14 -9 -1 -5 -2 -15 -3 -22 -1 -14 -35 -20 -54 -9 -12 7 -11 9 2 14 11 5
15 3 10 -4 -4 -7 -1 -10 7 -7 8 3 13 14 11 24 -2 14 -1 16 6 6 7 -11 11 -10
17 5 5 10 8 21 7 25 -1 4 4 5 11 2 7 -2 21 2 32 10 24 19 35 20 35 4z m-523
-63 c0 -8 -4 -12 -9 -9 -5 3 -6 10 -3 15 9 13 12 11 12 -6z m329 -63 c-17 -16
-18 -16 -5 5 7 12 15 20 18 17 3 -2 -3 -12 -13 -22z m-251 -12 c3 -6 -1 -7 -9
-4 -18 7 -21 14 -7 14 6 0 13 -4 16 -10z m63 -45 c-3 -3 -9 2 -12 12 -6 14 -5
15 5 6 7 -7 10 -15 7 -18z"/>
<path d="M866 2038 c3 -5 10 -6 15 -3 13 9 11 12 -6 12 -8 0 -12 -4 -9 -9z"/>
<path d="M1595 1930 c3 -5 8 -10 11 -10 2 0 4 5 4 10 0 6 -5 10 -11 10 -5 0
-7 -4 -4 -10z"/>
<path d="M1735 1841 c-6 -11 13 -26 22 -17 4 3 1 6 -6 6 -7 0 -9 5 -6 10 3 6
4 10 1 10 -3 0 -7 -4 -11 -9z"/>
<path d="M285 1509 c-4 -6 -5 -12 -2 -15 2 -3 7 2 10 11 7 17 1 20 -8 4z"/>
<path d="M1940 1486 c0 -2 7 -7 16 -10 8 -3 12 -2 9 4 -6 10 -25 14 -25 6z"/>
<path d="M1960 1380 c8 -5 20 -10 25 -10 6 0 3 5 -5 10 -8 5 -19 10 -25 10 -5
0 -3 -5 5 -10z"/>
<path d="M294 1260 c0 -13 4 -16 10 -10 7 7 7 13 0 20 -6 6 -10 3 -10 -10z"/>
<path d="M1930 1218 c0 -4 4 -8 9 -8 6 0 12 4 15 8 3 5 -1 9 -9 9 -8 0 -15 -4
-15 -9z"/>
<path d="M1913 1195 c0 -8 4 -15 9 -15 4 0 8 4 8 9 0 6 -4 12 -8 15 -5 3 -9
-1 -9 -9z"/>
<path d="M310 1180 c0 -5 5 -10 11 -10 5 0 7 5 4 10 -3 6 -8 10 -11 10 -2 0
-4 -4 -4 -10z"/>
<path d="M321 1143 c7 -12 15 -20 18 -17 3 2 -3 12 -13 22 -17 16 -18 16 -5
-5z"/>
<path d="M316 1107 c3 -10 9 -15 12 -12 3 3 0 11 -7 18 -10 9 -11 8 -5 -6z"/>
<path d="M1895 1100 c3 -5 8 -10 11 -10 2 0 4 5 4 10 0 6 -5 10 -11 10 -5 0
-7 -4 -4 -10z"/>
<path d="M360 1021 c0 -11 4 -22 9 -25 4 -3 6 6 3 19 -5 30 -12 33 -12 6z"/>
<path d="M1835 990 c3 -5 8 -10 11 -10 2 0 4 5 4 10 0 6 -5 10 -11 10 -5 0 -7
-4 -4 -10z"/>
<path d="M425 896 c-14 -10 -15 -15 -5 -21 9 -5 11 -4 6 3 -4 7 -1 12 8 12 9
0 15 -3 15 -7 -4 -24 3 -42 17 -47 14 -5 15 -4 5 8 -6 8 -14 24 -16 36 -6 30
-9 32 -30 16z"/>
<path d="M470 811 c0 -5 7 -12 16 -15 14 -5 15 -4 4 9 -14 17 -20 19 -20 6z"/>
<path d="M1760 780 c-9 -6 -10 -10 -3 -10 6 0 15 5 18 10 8 12 4 12 -15 0z"/>
<path d="M1643 625 c0 -6 6 -12 12 -12 6 0 12 6 12 12 0 6 -6 12 -12 12 -6 0
-12 -6 -12 -12z"/>
<path d="M590 586 c0 -2 7 -6 15 -10 8 -3 15 -1 15 4 0 6 -7 10 -15 10 -8 0
-15 -2 -15 -4z"/>
<path d="M617 545 c-4 -8 -3 -16 1 -19 4 -3 9 4 9 15 2 23 -3 25 -10 4z"/>
<path d="M1546 512 c-4 -7 -4 -12 1 -13 4 0 16 -2 26 -4 9 -2 17 1 17 7 0 6
-6 8 -14 5 -8 -3 -16 -1 -19 6 -2 8 -5 8 -11 -1z"/>
<path d="M1535 480 c-3 -5 -1 -10 4 -10 6 0 11 5 11 10 0 6 -2 10 -4 10 -3 0
-8 -4 -11 -10z"/>
<path d="M755 399 c-19 -7 -19 -8 3 -8 13 -1 21 -5 18 -10 -3 -5 1 -12 9 -15
13 -5 14 -2 4 17 -6 12 -12 23 -13 23 0 1 -10 -2 -21 -7z"/>
<path d="M1485 380 c-3 -6 1 -7 9 -4 18 7 21 14 7 14 -6 0 -13 -4 -16 -10z"/>
<path d="M856 269 c2 -4 13 -7 24 -6 23 2 17 10 -10 12 -10 1 -17 -2 -14 -6z"/>
<path d="M1375 251 c-3 -5 -2 -12 3 -15 5 -3 9 1 9 9 0 17 -3 19 -12 6z"/>
<path d="M1279 209 c-28 -23 -32 -30 -21 -41 11 -11 12 -10 6 5 -4 10 -2 17 3
15 6 -2 20 8 33 22 15 17 20 20 16 8 -7 -23 1 -23 13 0 15 28 -10 24 -50 -9z"/>
<path d="M940 191 c0 -10 19 -25 25 -20 1 2 -3 10 -11 17 -8 7 -14 8 -14 3z"/>
<path d="M982 185 c4 -4 3 -14 -3 -22 -7 -8 -8 -13 -1 -13 15 0 23 28 9 36 -7
4 -9 4 -5 -1z"/>
<path d="M1005 160 c-4 -12 -4 -24 -1 -27 3 -4 6 1 6 11 0 9 5 14 10 11 6 -4
7 -11 4 -17 -4 -6 -2 -8 4 -5 13 9 9 40 -6 45 -5 1 -13 -6 -17 -18z"/>
<path d="M1217 163 c3 -7 13 -13 22 -12 10 0 11 2 3 6 -6 2 -10 8 -8 12 3 4
-1 8 -8 8 -8 0 -12 -6 -9 -14z"/>
<path d="M1036 122 c-3 -5 1 -9 9 -9 8 0 12 4 9 9 -3 4 -7 8 -9 8 -2 0 -6 -4
-9 -8z"/>
</g>
</svg>
